<?xml version="1.0" standalone="no"?>
<!DOCTYPE svg PUBLIC "-//W3C//DTD SVG 20010904//EN"
 "http://www.w3.org/TR/2001/REC-SVG-20010904/DTD/svg10.dtd">
<svg version="1.0" xmlns="http://www.w3.org/2000/svg"
 width="32.000000pt" height="32.000000pt" viewBox="0 0 32.000000 32.000000"
 preserveAspectRatio="xMidYMid meet">

<g transform="translate(0.000000,32.000000) scale(0.100000,-0.100000)"
fill="#000000" stroke="none">
<path d="M228 197 l-68 -42 0 -78 c0 -90 -3 -89 85 -32 l55 35 0 80 c0 44 -1
80 -2 80 -2 0 -33 -19 -70 -43z m-21 -71 c-3 -7 -1 -18 5 -24 12 -12 -8 -55
-23 -46 -7 4 -6 10 1 19 8 9 8 14 -1 17 -14 5 -3 48 13 48 5 0 8 -6 5 -14z"/>
</g>
</svg>
